<svg width="28" height="28" viewBox="0 0 28 28" xmlns="http://www.w3.org/2000/svg">
  <!-- Dark circle background -->
  <circle cx="14" cy="14" r="13.5" fill="#1E1E2E" stroke="#FF6B35" stroke-width="1"/>
  <!-- Stylized claw/lobster icon -->
  <g transform="translate(14,14)" fill="#FF6B35">
    <!-- Center body -->
    <circle cx="0" cy="0" r="3"/>
    <!-- Left claw -->
    <path d="M-3-1 Q-7-5 -8-3 Q-9-1 -7 0 Q-5 1 -3 1" fill="#FF6B35"/>
    <path d="M-8-3 L-10-5 M-8-2 L-11-3" stroke="#FF6B35" stroke-width="1.2" fill="none" stroke-linecap="round"/>
    <!-- Right claw -->
    <path d="M3-1 Q7-5 8-3 Q9-1 7 0 Q5 1 3 1" fill="#FF6B35"/>
    <path d="M8-3 L10-5 M8-2 L11-3" stroke="#FF6B35" stroke-width="1.2" fill="none" stroke-linecap="round"/>
    <!-- Eyes -->
    <circle cx="-1.5" cy="-1" r="1" fill="#1E1E2E"/>
    <circle cx="1.5" cy="-1" r="1" fill="#1E1E2E"/>
  </g>
</svg>
